<svg width="32" height="33" viewBox="0 0 32 33" fill="none" xmlns="http://www.w3.org/2000/svg">
<path d="M17.5553 16.5107L27.6827 6.41763C28.1058 5.99054 28.1058 5.29866 27.6827 4.87157C27.2671 4.43685 26.5807 4.4238 26.1491 4.8424L16.0217 14.9355L6.02452 4.8424C5.81956 4.62384 5.53438 4.5 5.23603 4.5C4.93769 4.5 4.6525 4.62384 4.44754 4.8424C4.0724 5.25503 4.0724 5.88831 4.44754 6.30094L14.4447 16.3795L4.31733 26.458C3.89422 26.8851 3.89422 27.577 4.31733 28.004C4.51876 28.212 4.79579 28.328 5.08412 28.3249C5.37801 28.3489 5.66935 28.2545 5.89431 28.0624L16.0217 17.9693L26.1491 28.1791C26.3505 28.3871 26.6276 28.503 26.9159 28.4999C27.2039 28.5013 27.4803 28.3856 27.6827 28.1791C28.1058 27.752 28.1058 27.0601 27.6827 26.633L17.5553 16.5107Z" fill="#0B1C3F"/>
</svg>
