<svg width="24" height="25" viewBox="0 0 24 25" fill="none" xmlns="http://www.w3.org/2000/svg">
<path d="M20.3777 7.98338L20.3775 7.98296C19.9499 6.92614 19.1899 6.10768 18.2662 5.59784L18.0455 6.12131C18.8372 6.57248 19.4893 7.28541 19.8575 8.19681L20.3777 7.98338ZM20.3777 7.98338C20.8059 9.03913 20.8297 10.158 20.5227 11.1709M20.3777 7.98338L20.5227 11.1709M20.5227 11.1709L20.004 10.9505C20.256 10.0744 20.2274 9.10869 19.8576 8.19723L20.5227 11.1709ZM12.399 2.92444L12.8789 3.06461L12.9225 2.91535L12.8738 2.76768C12.7728 2.46174 13.0031 2.14844 13.318 2.14844C13.5136 2.14844 13.6962 2.27314 13.7614 2.46985L13.7661 2.48381L13.7715 2.49748L19.4561 16.7675C19.5304 17.0114 19.3972 17.2697 19.1559 17.3501C18.9119 17.4314 18.6465 17.2994 18.5644 17.0526L18.4856 16.8156L18.2487 16.7363L18.09 17.2104C18.2487 16.7363 18.2486 16.7362 18.2484 16.7362L18.2479 16.736L18.2468 16.7356L18.2435 16.7346L18.2329 16.7311L18.1964 16.7196C18.1653 16.71 18.1207 16.6966 18.0633 16.6804C17.9486 16.6479 17.7828 16.6042 17.5717 16.5567C17.1496 16.4618 16.5449 16.3518 15.804 16.2876C14.3236 16.1593 12.2889 16.2134 10.0785 16.9469L9.46678 17.1499L9.8155 17.692L12.6165 22.046L12.6164 22.046L12.6235 22.0566C12.7271 22.2089 12.654 22.4175 12.4841 22.4737L12.483 22.474L10.579 23.108L10.5778 23.1085C10.4978 23.1353 10.4156 23.1484 10.336 23.1484C10.1206 23.1484 9.90913 23.0566 9.75885 22.8874L9.75887 22.8874L9.75544 22.8836L5.90544 18.6366L5.69022 18.3992L5.38462 18.4956C3.46024 19.1025 1.40606 18.3727 0.739044 16.7103L0.738955 16.71C0.580788 16.3164 0.5 15.8966 0.5 15.4754C0.5 14.2691 1.16844 13.0026 2.71244 12.2442C7.04093 10.1187 9.57513 7.85874 11.0327 6.107C11.761 5.23179 12.2184 4.48594 12.4959 3.95104C12.6346 3.68368 12.7283 3.4693 12.7883 3.31812C12.8183 3.24253 12.8399 3.18276 12.8546 3.14008C12.8619 3.11874 12.8675 3.10168 12.8715 3.08905L12.8763 3.07344L12.8779 3.06818L12.8785 3.06618L12.8787 3.06534C12.8788 3.06497 12.8789 3.06461 12.399 2.92444ZM22.3884 7.16566L22.3883 7.16542C21.7345 5.55438 20.5482 4.31949 19.1138 3.58782L19.3488 3.03027C21.9283 4.32855 23.5 6.96855 23.5 9.77844C23.5 10.6289 23.3567 11.4664 23.0837 12.2567L22.5291 12.0212C23.0477 10.4948 23.0416 8.77767 22.3884 7.16566Z" stroke="#DA3128"/>
</svg>
