<svg width="24" height="25" viewBox="0 0 24 25" fill="none" xmlns="http://www.w3.org/2000/svg">
<path fill-rule="evenodd" clip-rule="evenodd" d="M12.399 2.64795C12.191 2.01795 12.663 1.37195 13.318 1.37195C13.723 1.37195 14.101 1.62895 14.236 2.03595L19.927 16.3219C20.096 16.8309 19.821 17.3789 19.314 17.5479C18.807 17.7169 18.259 17.4419 18.09 16.9339C18.09 16.9339 14.497 15.7309 10.236 17.1449L13.037 21.4989C13.328 21.9269 13.125 22.5119 12.641 22.6719L10.737 23.3059C10.606 23.3499 10.47 23.3719 10.336 23.3719C9.979 23.3719 9.631 23.2199 9.385 22.9429L5.535 18.6959C3.439 19.3569 1.067 18.5939 0.275 16.6199C0.093 16.1669 0 15.6839 0 15.1989C0 13.7919 0.786 12.3569 2.492 11.5189C11.033 7.32495 12.399 2.64795 12.399 2.64795ZM18.466 3.56095C19.984 4.20195 21.255 5.42595 21.925 7.07695C22.594 8.72795 22.532 10.4969 21.891 12.0169L23.365 12.6429C23.78 11.6579 24 10.5899 24 9.50195C24 6.33495 22.127 3.36895 19.089 2.08295L18.466 3.56095ZM17.402 6.08395C18.276 6.45195 19.01 7.15695 19.394 8.10795C19.78 9.05895 19.745 10.0759 19.377 10.9509L20.813 11.5609C21.337 10.3149 21.389 8.86995 20.841 7.51895C20.294 6.16695 19.253 5.16695 18.01 4.64195L17.402 6.08395Z" fill="#DA3128"/>
</svg>
