<?xml version="1.0" standalone="no"?>
<!DOCTYPE svg PUBLIC "-//W3C//DTD SVG 20010904//EN"
 "http://www.w3.org/TR/2001/REC-SVG-20010904/DTD/svg10.dtd">
<svg version="1.0" xmlns="http://www.w3.org/2000/svg"
 width="1280.000000pt" height="1002.000000pt" viewBox="0 0 1280.000000 1002.000000"
 preserveAspectRatio="xMidYMid meet">
<metadata>
Created by potrace 1.15, written by Peter Selinger 2001-2017
</metadata>
<g transform="translate(0.000000,1002.000000) scale(0.100000,-0.100000)"
fill="#000000" stroke="none">
<path d="M1564 10004 c-391 -47 -772 -201 -1134 -458 -121 -85 -343 -296 -396
-375 l-29 -44 -3 -4486 c-1 -2467 0 -4492 3 -4500 7 -18 73 45 176 166 39 45
79 85 89 88 27 9 57 -9 125 -75 33 -32 129 -117 214 -189 l155 -131 1608 0
c1598 0 1608 0 1608 20 0 11 -11 48 -25 83 -28 69 -78 124 -197 219 -65 51
-127 135 -206 278 -39 70 -127 155 -247 238 -149 103 -229 182 -348 342 -55
74 -130 171 -167 215 -85 101 -99 129 -116 229 -16 92 -90 259 -133 300 -14
14 -52 32 -85 40 -69 18 -73 22 -101 79 -18 39 -24 43 -69 49 -26 4 -54 9 -62
12 -18 7 -37 54 -74 183 -19 65 -55 153 -96 232 -65 124 -66 129 -71 216 -4
101 -30 161 -91 218 -19 18 -45 42 -58 54 -34 31 -31 58 8 73 78 28 78 29 78
59 0 33 -48 81 -80 81 -38 0 -50 27 -50 114 0 100 -14 142 -74 233 -25 37 -46
75 -46 83 0 8 25 31 57 49 106 64 248 180 399 328 128 125 164 167 229 268 46
72 113 157 165 211 66 70 98 113 135 185 54 107 127 214 150 223 43 16 107 -4
191 -59 77 -51 134 -72 240 -85 49 -7 131 -21 183 -31 119 -24 157 -24 226 2
68 25 119 74 151 143 35 78 39 145 15 255 -26 114 -20 140 44 199 48 44 60 66
81 151 11 48 11 59 -6 102 -10 27 -41 80 -69 118 -64 85 -138 232 -147 287 -4
26 2 76 15 139 25 113 26 115 50 115 10 0 31 6 47 14 24 13 32 13 61 1 21 -9
42 -11 56 -6 13 5 32 4 46 -2 36 -17 51 12 51 99 0 70 1 72 30 84 17 7 42 26
56 43 36 43 29 93 -26 186 -47 78 -62 148 -38 169 8 6 44 16 80 21 75 11 111
27 151 69 56 58 53 156 -7 277 -19 39 -101 170 -182 290 -134 202 -224 357
-224 387 0 6 12 29 26 50 30 42 27 56 -6 38 -18 -10 -24 -9 -32 1 -10 16 -6
37 16 94 21 54 20 110 -3 170 -145 381 -235 605 -292 724 -38 79 -69 154 -69
166 0 12 7 42 15 65 19 53 19 119 1 143 -30 40 -306 223 -440 293 -96 49 -105
58 -181 151 -48 58 -97 107 -121 120 -51 28 -258 63 -375 63 -55 0 -112 7
-160 20 -52 15 -129 23 -259 30 -235 12 -299 11 -436 -6z"/>
<path d="M12231 8931 c-21 -21 -45 -137 -61 -300 -12 -120 -23 -144 -102 -211
-28 -25 -91 -78 -138 -119 -47 -40 -156 -127 -242 -192 -149 -112 -217 -149
-251 -136 -8 3 -41 51 -72 107 -32 55 -66 105 -77 111 -42 23 -85 -19 -74 -73
3 -17 28 -67 56 -113 55 -91 60 -115 30 -145 -24 -24 -233 -127 -429 -210
-165 -70 -279 -104 -646 -195 -493 -121 -623 -141 -1232 -196 -683 -60 -931
-80 -1548 -124 -346 -25 -692 -50 -768 -56 l-138 -11 -24 26 c-13 15 -35 26
-49 26 -33 0 -42 17 -21 40 10 11 15 26 12 35 -13 32 -466 13 -716 -29 -183
-32 -214 -55 -154 -118 14 -15 23 -31 19 -35 -4 -4 -40 -9 -80 -11 -52 -3 -75
0 -83 10 -6 7 -15 54 -19 103 -7 93 -31 161 -60 172 -29 11 -35 -20 -30 -151
l5 -130 -29 -32 c-21 -25 -30 -47 -35 -91 -10 -84 -13 -91 -46 -98 -22 -5 -43
0 -82 21 -51 26 -54 27 -192 21 -144 -6 -233 -23 -374 -71 -41 -14 -79 -30
-85 -36 -7 -7 -10 -48 -9 -105 3 -147 52 -695 65 -719 6 -11 23 -35 39 -51 28
-30 29 -33 64 -355 19 -179 39 -335 45 -347 5 -12 25 -29 43 -37 19 -7 41 -23
48 -33 8 -11 22 -22 32 -26 16 -6 18 -18 17 -84 -1 -43 1 -93 5 -110 6 -26 4
-33 -8 -33 -26 0 -26 -13 -2 -70 19 -44 28 -55 46 -55 20 0 26 -12 54 -100 17
-55 48 -132 69 -170 121 -221 148 -277 138 -287 -6 -6 -33 3 -80 26 -128 64
-186 59 -221 -20 -27 -60 -27 -62 9 -111 l30 -41 -41 -14 c-50 -15 -64 -35
-55 -72 8 -34 101 -81 181 -91 63 -7 74 -25 17 -25 -57 0 -154 -19 -179 -36
-17 -10 -23 -24 -23 -48 0 -34 18 -56 79 -96 l23 -16 -41 -41 c-47 -47 -52
-79 -21 -131 26 -42 25 -54 -5 -82 -29 -27 -32 -67 -9 -112 15 -29 15 -35 -1
-82 -17 -50 -17 -52 5 -104 l22 -52 -35 -39 c-38 -42 -39 -55 -7 -142 12 -33
11 -40 -8 -71 -30 -48 -29 -102 3 -133 13 -14 28 -25 33 -25 6 0 13 -8 16 -17
5 -11 -5 -28 -29 -53 -40 -41 -47 -89 -17 -130 11 -16 17 -44 17 -77 0 -40 5
-57 23 -75 29 -32 28 -51 -4 -68 -26 -15 -54 -57 -54 -84 0 -8 12 -29 27 -46
25 -31 26 -33 10 -60 -10 -15 -17 -37 -17 -47 0 -25 37 -60 73 -68 34 -9 34
-20 1 -41 -32 -21 -56 -67 -47 -91 3 -10 14 -27 23 -38 11 -13 19 -45 23 -93
6 -70 5 -74 -24 -106 -40 -46 -38 -77 8 -121 l38 -37 -25 -18 c-49 -37 -60
-50 -60 -74 0 -28 33 -72 60 -81 27 -8 25 -23 -2 -27 -16 -2 -25 -14 -33 -42
-10 -34 -17 -42 -53 -54 -30 -10 -51 -26 -72 -57 -17 -24 -39 -46 -50 -50 -30
-10 -70 -63 -70 -95 0 -21 -9 -35 -31 -51 -33 -23 -68 -89 -69 -127 0 -12 -7
-33 -15 -46 -8 -12 -18 -42 -21 -67 -7 -54 11 -272 27 -318 15 -43 8 -50 -138
-125 -202 -104 -279 -96 894 -96 l1018 0 97 148 c53 81 157 244 231 362 119
191 278 441 607 955 197 309 225 340 480 550 304 249 478 375 520 375 9 0 29
-14 45 -30 42 -43 86 -41 187 11 160 84 237 163 393 405 101 156 105 176 47
235 -44 44 -83 57 -125 41 -36 -14 -47 -8 -47 23 0 17 30 57 98 131 53 58 103
117 110 131 23 43 26 124 5 162 -30 57 -65 76 -141 77 -77 2 -78 6 -28 68 50
61 66 99 66 157 0 71 -28 114 -94 145 -28 13 -57 24 -63 24 -19 0 -16 37 7
101 24 70 14 110 -43 175 -45 51 -84 74 -125 74 -15 0 -36 6 -47 13 -16 12
-16 18 -7 47 19 54 14 101 -19 170 -62 131 -133 200 -207 200 -16 0 -74 -11
-128 -25 -87 -23 -99 -24 -113 -11 -13 14 -12 18 10 42 13 14 58 49 99 77 41
27 94 71 117 96 l43 45 157 8 c198 9 560 25 898 39 386 16 1225 17 1360 1 535
-63 879 -164 1370 -401 190 -93 322 -170 418 -246 71 -56 91 -97 136 -275 41
-159 57 -194 94 -198 42 -5 73 21 95 81 37 97 47 229 46 602 -3 1051 -141
2667 -320 3740 -19 116 -42 253 -50 305 -19 115 -35 173 -64 230 -43 84 -90
110 -129 71z m-6942 -3882 c56 -28 105 -58 110 -68 4 -9 14 -45 21 -81 23
-117 52 -151 126 -152 27 -1 90 2 140 7 l91 8 23 -67 c29 -89 41 -94 163 -73
51 10 134 17 185 17 106 0 106 0 117 98 8 74 19 82 118 82 33 0 112 5 174 11
62 7 116 9 120 5 10 -9 42 -194 43 -242 0 -37 -3 -43 -30 -54 -32 -13 -38 -36
-19 -72 8 -15 17 -19 39 -15 33 7 34 2 45 -108 8 -76 25 -119 50 -129 24 -9
94 -7 179 5 92 12 120 2 153 -56 28 -49 28 -50 4 -72 -46 -43 -120 -158 -130
-202 -6 -25 -17 -111 -26 -191 -9 -80 -25 -212 -35 -295 -11 -82 -27 -222 -35
-310 -25 -268 -46 -319 -213 -520 -59 -72 -160 -202 -224 -290 -64 -88 -154
-204 -200 -259 -45 -54 -103 -124 -127 -155 l-44 -56 -71 3 c-68 4 -72 2 -100
-26 -23 -25 -29 -41 -33 -96 -6 -64 -16 -78 -39 -57 -5 5 -26 14 -47 21 -71
22 -127 -27 -127 -112 l0 -35 -86 1 -85 1 -33 -36 c-43 -46 -56 -118 -56 -298
0 -156 -2 -158 -91 -116 -55 27 -59 31 -59 62 0 19 -5 43 -10 53 -11 20 -76
43 -159 55 -62 10 -34 21 69 28 101 6 119 12 130 43 21 54 -8 68 -173 83 -127
11 -146 16 -127 35 7 7 53 11 123 11 111 0 111 0 127 27 31 55 -18 87 -152 98
-93 7 -122 20 -100 43 8 7 42 12 85 13 72 1 143 22 159 47 26 41 -7 86 -71 94
-23 3 -41 10 -41 15 0 5 20 18 45 29 49 22 70 49 60 79 -9 28 -50 47 -122 55
-35 4 -63 10 -63 14 0 4 31 13 69 20 79 14 107 36 97 75 -10 39 -38 48 -152
47 -72 -1 -104 2 -104 10 0 8 11 9 31 5 20 -4 38 -1 47 6 8 7 48 15 88 19 81
6 114 25 114 65 0 40 -38 54 -162 64 -123 9 -148 15 -148 35 0 17 15 22 86 30
124 13 204 35 220 60 21 32 10 61 -28 74 -42 15 -81 14 -178 -5 -86 -16 -173
-16 -135 0 11 5 27 15 35 22 21 17 90 40 185 59 89 18 108 30 108 71 0 47 -25
56 -138 49 -102 -6 -186 3 -192 20 -9 30 18 40 124 46 81 5 119 12 150 27 60
31 72 81 29 121 -33 31 -98 31 -194 1 -111 -34 -165 -10 -76 35 33 17 55 20
143 17 110 -3 143 7 154 47 12 47 -62 88 -140 75 -24 -4 -54 0 -83 11 -25 9
-55 19 -67 22 -29 7 -29 19 1 38 15 10 64 18 138 24 118 9 151 18 162 47 20
51 -19 69 -177 84 -61 6 -113 12 -115 15 -2 2 9 12 24 22 18 12 57 20 116 25
110 8 152 29 156 76 5 50 -38 64 -170 56 -57 -3 -114 -2 -127 3 -23 9 -23 10
20 35 45 26 126 53 191 63 66 10 87 53 48 102 l-20 26 30 34 c34 39 36 52 14
98 -14 30 -14 36 0 64 12 22 16 61 16 155 0 115 -2 130 -31 205 -17 44 -41 95
-53 114 -32 47 -102 202 -120 267 -12 42 -15 99 -14 237 2 167 3 183 20 189
10 3 18 9 18 14 0 12 49 28 86 29 20 1 71 -19 133 -50z m-276 -976 c29 -14 46
-28 39 -30 -15 -6 -102 35 -102 48 0 13 5 12 63 -18z m648 -2705 c23 -18 44
-38 46 -45 5 -15 -120 -143 -140 -143 -13 0 -15 16 -14 98 1 53 6 103 10 110
14 21 54 13 98 -20z"/>
</g>
</svg>
