<svg xmlns="http://www.w3.org/2000/svg" xmlns:xlink="http://www.w3.org/1999/xlink" width="500" zoomAndPan="magnify" viewBox="0 0 375 374.999991" height="500" preserveAspectRatio="xMidYMid meet" version="1.0"><defs><g/><clipPath id="899f1ef394"><path d="M 6.140625 213.59375 L 97.292969 213.59375 L 97.292969 218.773438 L 6.140625 218.773438 Z M 6.140625 213.59375 " clip-rule="nonzero"/></clipPath><clipPath id="d86ed43ee4"><path d="M 97.242188 213.59375 L 188.394531 213.59375 L 188.394531 218.773438 L 97.242188 218.773438 Z M 97.242188 213.59375 " clip-rule="nonzero"/></clipPath><clipPath id="253869b5cb"><path d="M 188.339844 213.59375 L 279.492188 213.59375 L 279.492188 218.773438 L 188.339844 218.773438 Z M 188.339844 213.59375 " clip-rule="nonzero"/></clipPath><clipPath id="e139c622c2"><path d="M 279.441406 213.59375 L 370.59375 213.59375 L 370.59375 218.773438 L 279.441406 218.773438 Z M 279.441406 213.59375 " clip-rule="nonzero"/></clipPath></defs><g fill="#c44140" fill-opacity="1"><g transform="translate(4.871544, 203.926872)"><g><path d="M 5.140625 0 C 4.773438 0 4.453125 -0.132812 4.171875 -0.40625 C 3.898438 -0.6875 3.765625 -1.007812 3.765625 -1.375 L 3.765625 -37.265625 C 3.765625 -37.671875 3.890625 -38.007812 4.140625 -38.28125 C 4.398438 -38.5625 4.734375 -38.703125 5.140625 -38.703125 L 19.6875 -38.703125 C 25.144531 -38.703125 29.382812 -37.398438 32.40625 -34.796875 C 35.425781 -32.203125 37.007812 -28.472656 37.15625 -23.609375 C 37.195312 -22.546875 37.21875 -21.128906 37.21875 -19.359375 C 37.21875 -17.585938 37.195312 -16.1875 37.15625 -15.15625 C 36.789062 -5.050781 31.0625 0 19.96875 0 Z M 19.6875 -8.296875 C 22.007812 -8.296875 23.722656 -8.847656 24.828125 -9.953125 C 25.929688 -11.054688 26.519531 -12.828125 26.59375 -15.265625 C 26.664062 -16.328125 26.703125 -17.707031 26.703125 -19.40625 C 26.703125 -21.101562 26.664062 -22.46875 26.59375 -23.5 C 26.519531 -25.863281 25.882812 -27.601562 24.6875 -28.71875 C 23.488281 -29.84375 21.726562 -30.40625 19.40625 -30.40625 L 14.15625 -30.40625 L 14.15625 -8.296875 Z M 19.6875 -8.296875 "/></g></g></g><g fill="#c44140" fill-opacity="1"><g transform="translate(44.622406, 203.926872)"><g><path d="M 5.140625 0 C 4.773438 0 4.453125 -0.132812 4.171875 -0.40625 C 3.898438 -0.6875 3.765625 -1.007812 3.765625 -1.375 L 3.765625 -37.265625 C 3.765625 -37.671875 3.890625 -38.007812 4.140625 -38.28125 C 4.398438 -38.5625 4.734375 -38.703125 5.140625 -38.703125 L 31.25 -38.703125 C 31.644531 -38.703125 31.984375 -38.5625 32.265625 -38.28125 C 32.546875 -38.007812 32.6875 -37.671875 32.6875 -37.265625 L 32.6875 -31.796875 C 32.6875 -31.390625 32.546875 -31.054688 32.265625 -30.796875 C 31.984375 -30.535156 31.644531 -30.40625 31.25 -30.40625 L 13.765625 -30.40625 L 13.765625 -23.390625 L 30.03125 -23.390625 C 30.4375 -23.390625 30.773438 -23.25 31.046875 -22.96875 C 31.328125 -22.695312 31.46875 -22.359375 31.46875 -21.953125 L 31.46875 -16.921875 C 31.46875 -16.515625 31.328125 -16.171875 31.046875 -15.890625 C 30.773438 -15.617188 30.4375 -15.484375 30.03125 -15.484375 L 13.765625 -15.484375 L 13.765625 -8.296875 L 31.6875 -8.296875 C 32.09375 -8.296875 32.429688 -8.15625 32.703125 -7.875 C 32.984375 -7.601562 33.125 -7.265625 33.125 -6.859375 L 33.125 -1.375 C 33.125 -0.976562 32.984375 -0.648438 32.703125 -0.390625 C 32.429688 -0.128906 32.09375 0 31.6875 0 Z M 5.140625 0 "/></g></g></g><g fill="#c44140" fill-opacity="1"><g transform="translate(80.116219, 203.926872)"><g><path d="M 5.140625 0 C 4.773438 0 4.453125 -0.132812 4.171875 -0.40625 C 3.898438 -0.6875 3.765625 -1.007812 3.765625 -1.375 L 3.765625 -37.265625 C 3.765625 -37.671875 3.890625 -38.007812 4.140625 -38.28125 C 4.398438 -38.5625 4.734375 -38.703125 5.140625 -38.703125 L 11.390625 -38.703125 C 12.234375 -38.703125 12.859375 -38.351562 13.265625 -37.65625 L 26.328125 -17.03125 L 26.328125 -37.265625 C 26.328125 -37.671875 26.453125 -38.007812 26.703125 -38.28125 C 26.960938 -38.5625 27.296875 -38.703125 27.703125 -38.703125 L 34.71875 -38.703125 C 35.125 -38.703125 35.457031 -38.5625 35.71875 -38.28125 C 35.976562 -38.007812 36.109375 -37.671875 36.109375 -37.265625 L 36.109375 -1.4375 C 36.109375 -1.03125 35.976562 -0.6875 35.71875 -0.40625 C 35.457031 -0.132812 35.125 0 34.71875 0 L 28.484375 0 C 27.628906 0 27 -0.347656 26.59375 -1.046875 L 13.609375 -20.84375 L 13.609375 -1.375 C 13.609375 -0.976562 13.46875 -0.648438 13.1875 -0.390625 C 12.914062 -0.128906 12.578125 0 12.171875 0 Z M 5.140625 0 "/></g></g></g><g fill="#c44140" fill-opacity="1"><g transform="translate(119.977655, 203.926872)"><g><path d="M 20.1875 0.546875 C 14.945312 0.546875 10.84375 -0.722656 7.875 -3.265625 C 4.90625 -5.804688 3.421875 -9.617188 3.421875 -14.703125 L 3.421875 -37.265625 C 3.421875 -37.671875 3.550781 -38.007812 3.8125 -38.28125 C 4.070312 -38.5625 4.40625 -38.703125 4.8125 -38.703125 L 12.390625 -38.703125 C 12.796875 -38.703125 13.132812 -38.5625 13.40625 -38.28125 C 13.6875 -38.007812 13.828125 -37.671875 13.828125 -37.265625 L 13.828125 -14.8125 C 13.828125 -12.53125 14.367188 -10.816406 15.453125 -9.671875 C 16.546875 -8.535156 18.101562 -7.96875 20.125 -7.96875 C 22.15625 -7.96875 23.710938 -8.546875 24.796875 -9.703125 C 25.890625 -10.867188 26.4375 -12.570312 26.4375 -14.8125 L 26.4375 -37.265625 C 26.4375 -37.671875 26.570312 -38.007812 26.84375 -38.28125 C 27.125 -38.5625 27.46875 -38.703125 27.875 -38.703125 L 35.390625 -38.703125 C 35.796875 -38.703125 36.132812 -38.5625 36.40625 -38.28125 C 36.6875 -38.007812 36.828125 -37.671875 36.828125 -37.265625 L 36.828125 -14.703125 C 36.828125 -9.617188 35.351562 -5.804688 32.40625 -3.265625 C 29.457031 -0.722656 25.382812 0.546875 20.1875 0.546875 Z M 20.1875 0.546875 "/></g></g></g><g fill="#c44140" fill-opacity="1"><g transform="translate(160.226096, 203.926872)"><g><path d="M 5.140625 0 C 4.773438 0 4.453125 -0.132812 4.171875 -0.40625 C 3.898438 -0.6875 3.765625 -1.007812 3.765625 -1.375 L 3.765625 -37.265625 C 3.765625 -37.671875 3.890625 -38.007812 4.140625 -38.28125 C 4.398438 -38.5625 4.734375 -38.703125 5.140625 -38.703125 L 11.390625 -38.703125 C 12.234375 -38.703125 12.859375 -38.351562 13.265625 -37.65625 L 26.328125 -17.03125 L 26.328125 -37.265625 C 26.328125 -37.671875 26.453125 -38.007812 26.703125 -38.28125 C 26.960938 -38.5625 27.296875 -38.703125 27.703125 -38.703125 L 34.71875 -38.703125 C 35.125 -38.703125 35.457031 -38.5625 35.71875 -38.28125 C 35.976562 -38.007812 36.109375 -37.671875 36.109375 -37.265625 L 36.109375 -1.4375 C 36.109375 -1.03125 35.976562 -0.6875 35.71875 -0.40625 C 35.457031 -0.132812 35.125 0 34.71875 0 L 28.484375 0 C 27.628906 0 27 -0.347656 26.59375 -1.046875 L 13.609375 -20.84375 L 13.609375 -1.375 C 13.609375 -0.976562 13.46875 -0.648438 13.1875 -0.390625 C 12.914062 -0.128906 12.578125 0 12.171875 0 Z M 5.140625 0 "/></g></g></g><g fill="#c44140" fill-opacity="1"><g transform="translate(200.087531, 203.926872)"><g><path d="M 19.796875 0.546875 C 14.523438 0.546875 10.382812 -0.722656 7.375 -3.265625 C 4.375 -5.804688 2.78125 -9.53125 2.59375 -14.4375 C 2.5625 -15.425781 2.546875 -17.046875 2.546875 -19.296875 C 2.546875 -21.585938 2.5625 -23.25 2.59375 -24.28125 C 2.78125 -29.070312 4.394531 -32.765625 7.4375 -35.359375 C 10.476562 -37.960938 14.597656 -39.265625 19.796875 -39.265625 C 23.078125 -39.265625 26.015625 -38.726562 28.609375 -37.65625 C 31.210938 -36.582031 33.269531 -35.03125 34.78125 -33 C 36.289062 -30.976562 37.082031 -28.585938 37.15625 -25.828125 C 37.15625 -25.492188 37.035156 -25.210938 36.796875 -24.984375 C 36.554688 -24.765625 36.269531 -24.65625 35.9375 -24.65625 L 28.09375 -24.65625 C 27.570312 -24.65625 27.191406 -24.753906 26.953125 -24.953125 C 26.710938 -25.160156 26.503906 -25.539062 26.328125 -26.09375 C 25.804688 -27.90625 25.019531 -29.171875 23.96875 -29.890625 C 22.914062 -30.609375 21.523438 -30.96875 19.796875 -30.96875 C 15.628906 -30.96875 13.472656 -28.644531 13.328125 -24 C 13.285156 -23 13.265625 -21.46875 13.265625 -19.40625 C 13.265625 -17.34375 13.285156 -15.773438 13.328125 -14.703125 C 13.472656 -10.054688 15.628906 -7.734375 19.796875 -7.734375 C 21.492188 -7.734375 22.882812 -8.101562 23.96875 -8.84375 C 25.0625 -9.582031 25.847656 -10.835938 26.328125 -12.609375 C 26.472656 -13.160156 26.671875 -13.535156 26.921875 -13.734375 C 27.179688 -13.941406 27.570312 -14.046875 28.09375 -14.046875 L 35.9375 -14.046875 C 36.269531 -14.046875 36.554688 -13.929688 36.796875 -13.703125 C 37.035156 -13.484375 37.15625 -13.210938 37.15625 -12.890625 C 37.082031 -10.117188 36.289062 -7.71875 34.78125 -5.6875 C 33.269531 -3.664062 31.210938 -2.117188 28.609375 -1.046875 C 26.015625 0.015625 23.078125 0.546875 19.796875 0.546875 Z M 19.796875 0.546875 "/></g></g></g><g fill="#c44140" fill-opacity="1"><g transform="translate(239.119669, 203.926872)"><g><path d="M 5.140625 0 C 4.773438 0 4.453125 -0.132812 4.171875 -0.40625 C 3.898438 -0.6875 3.765625 -1.007812 3.765625 -1.375 L 3.765625 -37.328125 C 3.765625 -37.734375 3.898438 -38.0625 4.171875 -38.3125 C 4.453125 -38.570312 4.773438 -38.703125 5.140625 -38.703125 L 13.046875 -38.703125 C 13.453125 -38.703125 13.785156 -38.570312 14.046875 -38.3125 C 14.304688 -38.0625 14.4375 -37.734375 14.4375 -37.328125 L 14.4375 -1.375 C 14.4375 -1.007812 14.304688 -0.6875 14.046875 -0.40625 C 13.785156 -0.132812 13.453125 0 13.046875 0 Z M 5.140625 0 "/></g></g></g><g fill="#c44140" fill-opacity="1"><g transform="translate(257.308868, 203.926872)"><g><path d="M 1.609375 0 C 1.304688 0 1.035156 -0.117188 0.796875 -0.359375 C 0.554688 -0.597656 0.4375 -0.863281 0.4375 -1.15625 C 0.4375 -1.382812 0.457031 -1.550781 0.5 -1.65625 L 13.375 -37.109375 C 13.75 -38.171875 14.488281 -38.703125 15.59375 -38.703125 L 24.21875 -38.703125 C 25.320312 -38.703125 26.0625 -38.171875 26.4375 -37.109375 L 39.3125 -1.65625 C 39.351562 -1.550781 39.375 -1.382812 39.375 -1.15625 C 39.375 -0.863281 39.253906 -0.597656 39.015625 -0.359375 C 38.773438 -0.117188 38.503906 0 38.203125 0 L 31.015625 0 C 30.128906 0 29.503906 -0.40625 29.140625 -1.21875 L 27.15625 -6.578125 L 12.65625 -6.578125 L 10.671875 -1.21875 C 10.304688 -0.40625 9.679688 0 8.796875 0 Z M 14.984375 -14.875 L 24.828125 -14.875 L 19.90625 -28.96875 Z M 14.984375 -14.875 "/></g></g></g><g fill="#2d54a5" fill-opacity="1"><g transform="translate(297.099169, 203.926872)"><g><path d="M 5.140625 0 C 4.773438 0 4.453125 -0.132812 4.171875 -0.40625 C 3.898438 -0.6875 3.765625 -1.007812 3.765625 -1.375 L 3.765625 -37.265625 C 3.765625 -37.671875 3.890625 -38.007812 4.140625 -38.28125 C 4.398438 -38.5625 4.734375 -38.703125 5.140625 -38.703125 L 20.796875 -38.703125 C 25.585938 -38.703125 29.347656 -37.613281 32.078125 -35.4375 C 34.804688 -33.269531 36.171875 -30.082031 36.171875 -25.875 C 36.171875 -21.675781 34.804688 -18.535156 32.078125 -16.453125 C 29.347656 -14.367188 25.585938 -13.328125 20.796875 -13.328125 L 14.484375 -13.328125 L 14.484375 -1.375 C 14.484375 -1.007812 14.351562 -0.6875 14.09375 -0.40625 C 13.84375 -0.132812 13.515625 0 13.109375 0 Z M 20.515625 -21.234375 C 22.023438 -21.234375 23.210938 -21.628906 24.078125 -22.421875 C 24.941406 -23.210938 25.375 -24.382812 25.375 -25.9375 C 25.375 -27.375 24.976562 -28.535156 24.1875 -29.421875 C 23.394531 -30.304688 22.171875 -30.75 20.515625 -30.75 L 14.328125 -30.75 L 14.328125 -21.234375 Z M 20.515625 -21.234375 "/></g></g></g><g fill="#ffb609" fill-opacity="1"><g transform="translate(334.631056, 203.926872)"><g><path d="M 5.140625 0 C 4.773438 0 4.453125 -0.132812 4.171875 -0.40625 C 3.898438 -0.6875 3.765625 -1.007812 3.765625 -1.375 L 3.765625 -37.265625 C 3.765625 -37.671875 3.890625 -38.007812 4.140625 -38.28125 C 4.398438 -38.5625 4.734375 -38.703125 5.140625 -38.703125 L 31.25 -38.703125 C 31.644531 -38.703125 31.984375 -38.5625 32.265625 -38.28125 C 32.546875 -38.007812 32.6875 -37.671875 32.6875 -37.265625 L 32.6875 -31.796875 C 32.6875 -31.390625 32.546875 -31.054688 32.265625 -30.796875 C 31.984375 -30.535156 31.644531 -30.40625 31.25 -30.40625 L 13.765625 -30.40625 L 13.765625 -23.390625 L 30.03125 -23.390625 C 30.4375 -23.390625 30.773438 -23.25 31.046875 -22.96875 C 31.328125 -22.695312 31.46875 -22.359375 31.46875 -21.953125 L 31.46875 -16.921875 C 31.46875 -16.515625 31.328125 -16.171875 31.046875 -15.890625 C 30.773438 -15.617188 30.4375 -15.484375 30.03125 -15.484375 L 13.765625 -15.484375 L 13.765625 -8.296875 L 31.6875 -8.296875 C 32.09375 -8.296875 32.429688 -8.15625 32.703125 -7.875 C 32.984375 -7.601562 33.125 -7.265625 33.125 -6.859375 L 33.125 -1.375 C 33.125 -0.976562 32.984375 -0.648438 32.703125 -0.390625 C 32.429688 -0.128906 32.09375 0 31.6875 0 Z M 5.140625 0 "/></g></g></g><g clip-path="url(#899f1ef394)"><path fill="#2d54a5" d="M 6.25 213.59375 L 97.1875 213.59375 L 97.1875 218.773438 L 6.25 218.773438 L 6.25 213.59375 " fill-opacity="1" fill-rule="nonzero"/></g><g clip-path="url(#d86ed43ee4)"><path fill="#ffb609" d="M 97.347656 213.59375 L 188.285156 213.59375 L 188.285156 218.773438 L 97.347656 218.773438 L 97.347656 213.59375 " fill-opacity="1" fill-rule="nonzero"/></g><g clip-path="url(#253869b5cb)"><path fill="#c44140" d="M 188.449219 213.59375 L 279.386719 213.59375 L 279.386719 218.773438 L 188.449219 218.773438 L 188.449219 213.59375 " fill-opacity="1" fill-rule="nonzero"/></g><g clip-path="url(#e139c622c2)"><path fill="#00af49" d="M 279.546875 213.59375 L 370.488281 213.59375 L 370.488281 218.773438 L 279.546875 218.773438 L 279.546875 213.59375 " fill-opacity="1" fill-rule="nonzero"/></g></svg>